<svg width="51" height="112" viewBox="0 0 51 112" fill="none" xmlns="http://www.w3.org/2000/svg">
<rect x="2" y="10" width="8" height="8" fill="#D9D9D9"/>
<rect x="15" y="10" width="8" height="8" fill="#D9D9D9"/>
<rect x="29" y="10" width="8" height="8" fill="#D9D9D9"/>
<rect x="42" y="10" width="8" height="8" fill="#D9D9D9"/>
<rect x="2" y="22" width="8" height="8" fill="#D9D9D9"/>
<rect x="15" y="22" width="8" height="8" fill="#D9D9D9"/>
<rect x="29" y="22" width="8" height="8" fill="#D9D9D9"/>
<rect x="42" y="22" width="8" height="8" fill="#D9D9D9"/>
<rect x="2" y="34" width="8" height="8" fill="#D9D9D9"/>
<rect x="15" y="34" width="8" height="8" fill="#D9D9D9"/>
<rect x="29" y="34" width="8" height="8" fill="#D9D9D9"/>
<rect x="42" y="34" width="8" height="8" fill="#D9D9D9"/>
<rect x="2" y="46" width="8" height="8" fill="#D9D9D9"/>
<rect x="15" y="46" width="8" height="8" fill="#D9D9D9"/>
<rect x="29" y="46" width="8" height="8" fill="#D9D9D9"/>
<rect x="42" y="46" width="8" height="8" fill="#D9D9D9"/>
<rect x="2" y="58" width="8" height="8" fill="#D9D9D9"/>
<rect x="15" y="58" width="8" height="8" fill="#D9D9D9"/>
<rect x="29" y="58" width="8" height="8" fill="#D9D9D9"/>
<rect x="42" y="58" width="8" height="8" fill="#D9D9D9"/>
<rect x="2" y="70" width="8" height="8" fill="#D9D9D9"/>
<rect x="15" y="70" width="8" height="8" fill="#D9D9D9"/>
<rect x="29" y="70" width="8" height="8" fill="#D9D9D9"/>
<rect x="42" y="70" width="8" height="8" fill="#D9D9D9"/>
<rect x="2" y="82" width="8" height="8" fill="#D9D9D9"/>
<rect x="15" y="82" width="8" height="8" fill="#D9D9D9"/>
<rect x="29" y="82" width="8" height="8" fill="#D9D9D9"/>
<rect x="42" y="82" width="8" height="8" fill="#D9D9D9"/>
<rect x="2" y="94" width="8" height="8" fill="#D9D9D9"/>
<rect x="15" y="94" width="8" height="8" fill="#D9D9D9"/>
<rect x="29" y="94" width="8" height="8" fill="#D9D9D9"/>
<rect x="42" y="94" width="8" height="8" fill="#D9D9D9"/>
</svg>
